<?xml version="1.0" encoding="UTF-8" standalone="no"?>
<!-- Created with Inkscape (http://www.inkscape.org/) -->

<svg
   width="1000"
   height="1000"
   viewBox="0 0 1000 1000"
   id="svg2"
   version="1.1"
   inkscape:version="1.3 (0e150ed6c4, 2023-07-21)"
   sodipodi:docname="linked_in_icon.svg"
   xml:space="preserve"
   xmlns:inkscape="http://www.inkscape.org/namespaces/inkscape"
   xmlns:sodipodi="http://sodipodi.sourceforge.net/DTD/sodipodi-0.dtd"
   xmlns="http://www.w3.org/2000/svg"
   xmlns:svg="http://www.w3.org/2000/svg"
   xmlns:rdf="http://www.w3.org/1999/02/22-rdf-syntax-ns#"
   xmlns:cc="http://creativecommons.org/ns#"
   xmlns:dc="http://purl.org/dc/elements/1.1/"><defs
     id="defs4" /><sodipodi:namedview
     id="base"
     pagecolor="#ffffff"
     bordercolor="#666666"
     borderopacity="1.0"
     inkscape:pageopacity="0.0"
     inkscape:pageshadow="2"
     inkscape:zoom="0.38691406"
     inkscape:cx="435.49723"
     inkscape:cy="621.58506"
     inkscape:document-units="px"
     inkscape:current-layer="layer1"
     showgrid="true"
     inkscape:showpageshadow="false"
     units="px"
     inkscape:window-width="1920"
     inkscape:window-height="1057"
     inkscape:window-x="-8"
     inkscape:window-y="-8"
     inkscape:window-maximized="1"
     inkscape:snap-global="false"
     inkscape:pagecheckerboard="0"
     inkscape:deskcolor="#d1d1d1"><inkscape:grid
       type="xygrid"
       id="grid4136"
       spacingx="10"
       spacingy="10"
       empspacing="5"
       originx="0"
       originy="0"
       units="px"
       visible="true" /></sodipodi:namedview><metadata
     id="metadata7"><rdf:RDF><cc:Work
         rdf:about=""><dc:format>image/svg+xml</dc:format><dc:type
           rdf:resource="http://purl.org/dc/dcmitype/StillImage" /></cc:Work></rdf:RDF></metadata><g
     inkscape:label="Layer 1"
     inkscape:groupmode="layer"
     id="layer1"
     transform="translate(0,-52.362271)"><path
       style="fill:#000000;fill-opacity:1"
       d="m 108.6147,1049.3971 -13.6719,-2.863 -14.1487,-6.6417 c -7.7818,-3.6529 -17.9682,-9.2696 -22.6365,-12.4814 -12.521,-8.6147 -26.1581,-22.9658 -35.475,-37.33245 -4.5282,-6.98242 -10.4758,-18.4082 -13.2169,-25.39062 L 4.4818,951.99261 2.2409,937.34418 0,922.69574 0.6009,543.78949 0,172.36227 C -0.13431104,89.342171 76.38989,52.291715 120,52.362271 l 371.4272,0.600925 378.9062,-0.600925 C 940,52.251783 999.96588,112.36227 1000,172.36227 l 0.2162,380.21628 v 375.16468 l -3.0982,15.05438 c -1.7041,8.27991 -4.936,19.44891 -7.1822,24.82 -6.0658,14.50509 -19.0461,33.90489 -29.9146,44.70889 -11.0166,10.9512 -30.5401,24.0227 -44.7659,29.9717 -5.3711,2.2461 -16.5401,5.478 -24.82,7.1821 l -15.0544,3.0983 -376.5472,-0.1593 -376.5471,-0.1592 z M 340,842.36227 V 466.59636 c 0,-10.28998 -7.63281,-17.94778 -19.15662,-19.09245 C 300,447.07442 250,447.0973 227.93009,446.9328 217.42754,446.92645 210.7992,456.1316 210,466.31015 l -0.7992,384.56973 4.176,5.30894 c 2.2968,2.91992 6.0322,6.05891 8.3008,6.97553 l 4.1248,1.6666 49.8047,0.1165 L 320,864.37862 c 11.19483,-0.0234 20.0149,-7.14808 20,-22.01635 z m 190.82928,4.21294 c -2e-5,0 0.70362,-137.46161 0.0203,-204.21294 -0.8496,-40 24.95159,-90 74.89842,-90 41.85142,0 69.73184,26.74596 69.89249,80 l 0.12439,106.19977 0.40173,103.80023 c -1.10411,14.17225 3.83337,22.21124 18.67941,22.14355 0,0 63.43573,0.12973 95.15396,0.0518 14.09848,-0.10101 20,-12.19539 20,-22.19539 l -1.3823,-239.99996 C 808.48413,560.55639 786.76049,497.35743 740,460.97033 725.48159,449.67269 690.001,440.76532 656.51778,440.27671 610,439.5979 562.42978,456.20909 531.00395,499.90224 c 0.13936,-9.61694 0.44223,-33.10025 0.34642,-38.72409 -0.0864,-5.07181 -7.08065,-13.63793 -15.06119,-13.66451 L 466.01488,447.1098 420,447.19057 c -9.28499,0.10404 -18.66867,3.29698 -19.19233,20.54497 l -0.13159,186.74355 0.63437,190.53961 C 402.12289,859.53833 410,864.44733 420,864.53629 l 47.23778,0.47304 48.91354,-0.90001 c 11.56001,0.13461 14.77155,-7.36261 14.67794,-17.53411 z M 358.90964,327.19419 c 1.15737,-48.43839 -35.44378,-86.25011 -83.81641,-86.13902 -50.6385,0.11629 -84.12183,48.12907 -83.64813,86.84063 0.52097,42.57428 40.40082,82.72653 84.2594,82.1621 41.66586,-0.53621 82.03221,-33.774 83.20514,-82.86371 z"
       id="path1"
       sodipodi:nodetypes="ccssssccccsscssccsssssccccccccccssccccccscccccccsscscccccccccscsssss"
       inkscape:export-filename="..\icons\linked_in_light.png"
       inkscape:export-xdpi="96"
       inkscape:export-ydpi="96" /></g></svg>
