<?xml version="1.0" encoding="UTF-8" standalone="no"?>
<svg
   version="1.1"
   width="256"
   height="256"
   viewBox="0 0 256 256"
   xml:space="preserve"
   id="svg2"
   sodipodi:docname="location-light_mode.svg"
   inkscape:export-filename="..\icons\location-light_mode.png"
   inkscape:export-xdpi="96"
   inkscape:export-ydpi="96"
   inkscape:version="1.3 (0e150ed6c4, 2023-07-21)"
   xmlns:inkscape="http://www.inkscape.org/namespaces/inkscape"
   xmlns:sodipodi="http://sodipodi.sourceforge.net/DTD/sodipodi-0.dtd"
   xmlns="http://www.w3.org/2000/svg"
   xmlns:svg="http://www.w3.org/2000/svg"><defs
   id="defs2" /><sodipodi:namedview
   id="namedview2"
   pagecolor="#ffffff"
   bordercolor="#000000"
   borderopacity="0.25"
   inkscape:showpageshadow="2"
   inkscape:pageopacity="0.0"
   inkscape:pagecheckerboard="0"
   inkscape:deskcolor="#d1d1d1"
   inkscape:zoom="2.378199"
   inkscape:cx="136.23755"
   inkscape:cy="158.31308"
   inkscape:window-width="1920"
   inkscape:window-height="1057"
   inkscape:window-x="-8"
   inkscape:window-y="-8"
   inkscape:window-maximized="1"
   inkscape:current-layer="svg2" />&#10;<g
   style="stroke:none;stroke-width:0;stroke-dasharray:none;stroke-linecap:butt;stroke-linejoin:miter;stroke-miterlimit:10;fill:#000000;fill-rule:nonzero;opacity:1;fill-opacity:1"
   transform="translate(1.4065934065934016 1.4065934065934016) scale(2.81 2.81)"
   id="g2">&#10;	<path
   id="path4"
   style="stroke:none;stroke-width:1;stroke-dasharray:none;stroke-linecap:butt;stroke-linejoin:miter;stroke-miterlimit:10;fill:#000000;fill-rule:nonzero;opacity:1;fill-opacity:1"
   d="M 45.000295 -0.00012220875 C 27.677312 -0.00012220875 13.584175 14.093015 13.584175 31.415998 C 13.584175 36.233993 14.647222 40.857661 16.759219 45.188657 C 19.664217 51.019651 28.167122 65.395691 37.171113 80.616676 L 41.556261 88.033686 C 42.275261 89.251684 43.585296 90.000017 45.000295 90.000017 C 46.415293 90.000017 47.725329 89.251684 48.444328 88.033686 L 52.826001 80.620846 C 61.768992 65.504862 70.217818 51.220677 73.178815 45.311683 C 73.205815 45.260683 73.233747 45.208684 73.258747 45.156684 C 75.352745 40.853688 76.41572 36.230993 76.41572 31.415998 C 76.41572 14.093015 62.323278 -0.00012220875 45.000295 -0.00012220875 z M 45.000295 14.940937 C 53.474286 14.940937 60.368122 21.836162 60.368122 30.310154 C 60.368122 38.784145 53.474286 45.677981 45.000295 45.677981 C 36.526303 45.677981 29.631078 38.784145 29.631078 30.310154 C 29.631078 21.836162 36.526303 14.940937 45.000295 14.940937 z "
   transform=" matrix(1 0 0 1 0 0) " />&#10;	&#10;</g>&#10;</svg>
