<?xml version="1.0" encoding="UTF-8" standalone="no"?>
<svg
   version="1.1"
   width="176.55664"
   height="252.90039"
   viewBox="0 0 176.55664 252.90039"
   xml:space="preserve"
   id="svg2"
   sodipodi:docname="location-light_mode.svg"
   inkscape:export-filename="..\icons\location-dark_mode.png"
   inkscape:export-xdpi="96"
   inkscape:export-ydpi="96"
   inkscape:version="1.3 (0e150ed6c4, 2023-07-21)"
   xmlns:inkscape="http://www.inkscape.org/namespaces/inkscape"
   xmlns:sodipodi="http://sodipodi.sourceforge.net/DTD/sodipodi-0.dtd"
   xmlns="http://www.w3.org/2000/svg"
   xmlns:svg="http://www.w3.org/2000/svg"><defs
   id="defs2" /><sodipodi:namedview
   id="namedview2"
   pagecolor="#ffffff"
   bordercolor="#000000"
   borderopacity="0.25"
   inkscape:showpageshadow="2"
   inkscape:pageopacity="0.0"
   inkscape:pagecheckerboard="0"
   inkscape:deskcolor="#d1d1d1"
   inkscape:zoom="2.378199"
   inkscape:cx="136.23755"
   inkscape:cy="158.31308"
   inkscape:window-width="1920"
   inkscape:window-height="1057"
   inkscape:window-x="-8"
   inkscape:window-y="-8"
   inkscape:window-maximized="1"
   inkscape:current-layer="svg2" />&#10;<g
   style="opacity:1;fill:#000000;fill-opacity:1;fill-rule:nonzero;stroke:none;stroke-width:0;stroke-linecap:butt;stroke-linejoin:miter;stroke-miterlimit:10;stroke-dasharray:none"
   transform="matrix(2.81,0,0,2.81,-38.171532,3.434e-4)"
   id="g2">&#10;	<path
   id="path4"
   style="opacity:1;fill:#000000;fill-opacity:1;fill-rule:nonzero;stroke:none;stroke-width:1;stroke-linecap:butt;stroke-linejoin:miter;stroke-miterlimit:10;stroke-dasharray:none"
   d="m 45.000295,-1.2220875e-4 c -17.322983,0 -31.41612,14.09313720875 -31.41612,31.41612020875 0,4.817995 1.063047,9.441663 3.175044,13.772659 2.904998,5.830994 11.407903,20.207034 20.411894,35.428019 l 4.385148,7.41701 c 0.719,1.217998 2.029035,1.966331 3.444034,1.966331 1.414998,0 2.725034,-0.748333 3.444033,-1.966331 l 4.381673,-7.41284 c 8.942991,-15.115984 17.391817,-29.400169 20.352814,-35.309163 0.027,-0.051 0.05493,-0.102999 0.07993,-0.154999 2.093998,-4.302996 3.156973,-8.925691 3.156973,-13.740686 0,-17.322983 -14.092442,-31.41612020875 -31.415425,-31.41612020875 z m 0,14.94105920875 c 8.473991,0 15.367827,6.895225 15.367827,15.369217 0,8.473991 -6.893836,15.367827 -15.367827,15.367827 -8.473992,0 -15.369217,-6.893836 -15.369217,-15.367827 0,-8.473992 6.895225,-15.369217 15.369217,-15.369217 z" />&#10;	&#10;</g>&#10;</svg>
